# xmcd
#
# Track frame offsets:
#	150
#	10173
#	26069
#	40993
#	59537
#	76715
#
# Disc length: 1160 seconds
#
# Revision: 0
# Processed by: cddbd v1.5.2PL0 Copyright (c) Steve Scherf et al.
# Submitted via: EasyCDDAExtractor 15.3.0.1
#
DISCID=40048606
DTITLE=The B And The Band - Vanhempi ei vittuile, vanhempi neuvoo
DYEAR=2012
DGENRE=Punkrock
TTITLE0=Viiva nimeni per‰‰n
TTITLE1=Ripaus saatanaa
TTITLE2=Kuolema tulee
TTITLE3=Tikkurasiapuisto
TTITLE4=Pakkohoitopotilas
TTITLE5=Mun koti ei oo t‰‰ll‰
EXTD=
EXTT0=
EXTT1=
EXTT2=
EXTT3=
EXTT4=
EXTT5=
PLAYORDER=
